<svg width="536" height="112" viewBox="0 0 536 112" fill="none" xmlns="http://www.w3.org/2000/svg">
<path d="M133.381 23.1562L133.439 24.1816C133.439 24.7871 133.869 25.0898 134.729 25.0898H136.076L136.311 25.0605L137.893 25.002C138.049 24.9824 138.205 24.9727 138.361 24.9727C139.865 24.9727 141.242 24.416 142.492 23.3027C143.742 22.1699 144.367 20.7441 144.367 19.0254L144.426 18.5566V17.6191C144.426 15.8418 143.791 14.3867 142.521 13.2539C141.271 12.1211 139.387 11.5547 136.867 11.5547H135.725C134.436 11.5547 133.684 11.8672 133.469 12.4922C133.391 12.7266 133.352 14.4453 133.352 17.6484V22.9219L133.381 23.1562ZM133.352 41.0859L133.41 42.2871C133.41 43.4395 134.455 44.0156 136.545 44.0156L136.809 44.0449L137.043 44.0742L138.098 44.1035H139.416C141.35 44.1035 142.99 43.4883 144.338 42.2578C145.705 41.0273 146.389 39.3574 146.389 37.248V36.1348C146.389 34.1621 145.686 32.4727 144.279 31.0664C142.873 29.6602 140.725 28.957 137.834 28.957H136.018C134.533 28.957 133.713 29.1328 133.557 29.4844C133.42 29.8164 133.352 32.043 133.352 36.1641L133.322 36.6621V37.3945L133.293 37.6289V38.127L133.264 39.123V39.3574L133.293 39.5918V40.0898L133.322 40.3242C133.322 40.5 133.322 40.6758 133.322 40.8516L133.352 41.0859ZM134.963 7.42383H138.127C142.971 7.42383 146.623 8.30273 149.084 10.0605C151.545 11.8184 152.775 14.1816 152.775 17.1504C152.775 18.8496 152.385 20.4121 151.604 21.8379C150.822 23.2637 149.875 24.3477 148.762 25.0898C147.668 25.8125 147.121 26.2227 147.121 26.3203C147.121 26.418 147.873 26.8477 149.377 27.6094C150.9 28.3711 152.111 29.2793 153.01 30.334C154.436 32.0332 155.148 33.8789 155.148 35.8711V36.6328C155.148 42.4531 151.662 46.1348 144.689 47.6777C142.834 48.0879 140.217 48.293 136.838 48.293H135.285L134.494 48.2637C133.967 48.2441 133.449 48.2344 132.941 48.2344L131.389 48.1758C130.881 48.1562 130.363 48.1465 129.836 48.1465L126.057 48.0586C123.928 48.0586 122.668 48.0195 122.277 47.9414C121.262 47.7461 120.754 47.2676 120.754 46.5059C120.754 45.959 121.398 45.1484 122.688 44.0742C123.547 43.3516 124.113 42.2383 124.387 40.7344C124.68 39.2305 124.826 34.7773 124.826 27.375C124.826 19.9531 124.689 15.6953 124.416 14.6016C124.162 13.5078 123.488 12.5312 122.395 11.6719C121.32 10.8125 120.783 10.0508 120.783 9.38672C120.783 8.70313 121.164 8.24414 121.926 8.00977C122.707 7.77539 124.777 7.6582 128.137 7.6582L131.184 7.54102C133.215 7.46289 134.475 7.42383 134.963 7.42383ZM190.861 12.4629C190.861 13.7715 190.676 14.6309 190.305 15.041C189.934 15.4316 189.367 15.627 188.605 15.627L188.078 15.3633L187.463 14.9531L186.76 14.543C186.076 14.1523 184.758 13.6152 182.805 12.9316C180.871 12.248 179.064 11.9062 177.385 11.9062C175.705 11.9062 174.475 12.5117 173.693 13.7227C172.932 14.9336 172.551 17.4238 172.551 21.1934C172.551 22.2676 172.883 23.127 173.547 23.7715C174.211 24.416 175.129 24.7383 176.301 24.7383C177.473 24.7383 178.762 24.3281 180.168 23.5078C181.594 22.6875 182.6 22.2773 183.186 22.2773C183.791 22.2773 184.318 22.6777 184.768 23.4785C185.217 24.2598 185.441 25.1973 185.441 26.291C185.441 29.2402 185.119 31.0566 184.475 31.7402L183.684 32.1797C182.531 32.1797 181.613 31.916 180.93 31.3887C179.426 30.2363 178.322 29.6602 177.619 29.6602C175.393 29.6602 173.898 30.1289 173.137 31.0664C172.766 31.5352 172.58 33.1465 172.58 35.9004C172.58 38.6348 173.137 40.7148 174.25 42.1406C174.836 42.9023 176.125 43.2832 178.117 43.2832C180.109 43.2832 182.648 42.6094 185.734 41.2617C188.84 39.8945 190.617 39.2109 191.066 39.2109C191.906 39.2109 192.326 40.002 192.326 41.584V42.6387C192.326 43.1855 192.131 43.9473 191.74 44.9238C191.35 45.9004 190.744 46.6621 189.924 47.209C189.104 47.7559 187.756 48.0293 185.881 48.0293H164.641C161.398 48.0293 159.777 47.6094 159.777 46.7695V45.832C159.777 45.168 160.373 44.5039 161.564 43.8398C162.775 43.1758 163.479 42.4629 163.674 41.7012C163.889 40.9199 163.996 36.4277 163.996 28.2246C163.996 20.0215 163.859 15.373 163.586 14.2793C163.312 13.1855 162.629 12.1797 161.535 11.2617C160.441 10.3438 159.895 9.43555 159.895 8.53711C159.895 7.89258 160.598 7.53125 162.004 7.45312C163.41 7.35547 168.029 7.30664 175.861 7.30664L183.479 7.27734H184.709C186.682 7.27734 188.068 7.56055 188.869 8.12695C190.197 9.06445 190.861 10.5098 190.861 12.4629ZM209.377 30.3047V30.5977C209.377 30.832 210.285 30.9492 212.102 30.9492H215.471C218.146 30.9492 219.484 30.793 219.484 30.4805C219.484 29.6406 218.654 27.0625 216.994 22.7461C215.334 18.4297 214.475 16.2715 214.416 16.2715C214.377 16.2715 213.527 18.4395 211.867 22.7754C210.207 27.0918 209.377 29.6016 209.377 30.3047ZM215.148 7.27734H215.998C217.443 7.27734 219.064 8.82031 220.861 11.9062C221.486 12.9805 222.424 15.207 223.674 18.5859C224.924 21.9648 225.998 24.7676 226.896 26.9941C227.795 29.2207 228.771 31.877 229.826 34.9629C230.9 38.0293 231.672 40.0703 232.141 41.0859C232.629 42.082 233.488 43.0391 234.719 43.957C235.949 44.875 236.564 45.6758 236.564 46.3594C236.564 47.0234 236.145 47.4629 235.305 47.6777C233.938 48.0098 230.549 48.1758 225.139 48.1758C222.678 48.1758 221.447 47.6484 221.447 46.5938C221.447 46.3203 221.643 45.6562 222.033 44.6016C222.424 43.5273 222.619 42.7363 222.619 42.2285C222.619 39.8262 222.043 37.8047 220.891 36.1641C220.422 35.5 218.947 35.168 216.467 35.168C211.916 35.168 209.338 35.3145 208.732 35.6074C208.146 35.9004 207.541 36.6426 206.916 37.834C206.311 39.0254 206.008 40.1289 206.008 41.1445C206.008 42.1602 206.281 43.2539 206.828 44.4258C207.395 45.5977 207.678 46.5156 207.678 47.1797C207.678 48 206.799 48.4102 205.041 48.4102C200.861 48.4102 198.068 48.2148 196.662 47.8242C195.764 47.5703 195.314 46.9355 195.314 45.9199C195.314 45.7832 196.203 44.9336 197.98 43.3711C198.957 42.5117 199.738 41.3887 200.324 40.002C204.543 29.9434 207.219 22.6582 208.352 18.1465C209.504 13.6152 210.48 10.6758 211.281 9.32812C212.082 7.96094 213.371 7.27734 215.148 7.27734ZM277.082 38.625C277.043 39.7383 277.023 41.3203 277.023 43.3711C277.023 45.4023 276.896 46.6035 276.643 46.9746C276.408 47.3262 275.793 47.502 274.797 47.502C274.465 47.502 273.635 47.1406 272.307 46.418C270.979 45.6758 269.777 44.6406 268.703 43.3125C268.254 42.7656 265.363 38.5957 260.031 30.8027C254.699 23.0098 251.555 19.1133 250.598 19.1133C250.207 19.1133 250.012 21.7695 250.012 27.082C250.012 32.375 250.393 37.1406 251.154 41.3789C251.369 42.5703 251.74 43.5371 252.268 44.2793C252.814 45.0215 253.088 45.6367 253.088 46.125L252.854 46.7988C252.287 47.4629 250.412 47.7949 247.229 47.7949H245.969C243.449 47.7949 241.955 47.6094 241.486 47.2383C241.018 46.8672 240.783 46.3105 240.783 45.5684C240.783 45.1582 241.32 44.6309 242.395 43.9863C243.488 43.3223 244.143 42.668 244.357 42.0234C244.475 41.6719 244.533 39.9336 244.533 36.8086L244.592 35.4023L244.68 31.1836C244.738 28.3906 244.768 25.2168 244.768 21.6621C244.768 18.0879 244.631 15.8516 244.357 14.9531C244.104 14.0352 243.391 13.1465 242.219 12.2871C241.047 11.4082 240.461 10.6172 240.461 9.91406C240.461 9.19141 240.734 8.64453 241.281 8.27344C241.848 7.88281 242.932 7.6875 244.533 7.6875H245.852C249.016 7.6875 251.828 9.02539 254.289 11.7012C256.75 14.377 260.031 18.7031 264.133 24.6797C268.254 30.6562 270.627 33.6445 271.252 33.6445C271.994 33.6445 272.365 29.7969 272.365 22.1016C272.365 16.3789 271.73 12.7754 270.461 11.291C269.738 10.4316 269.377 9.83594 269.377 9.50391C269.377 8.625 270.266 8.18555 272.043 8.18555C275.598 8.18555 278.039 8.3418 279.367 8.6543C280.715 8.94727 281.389 9.57227 281.389 10.5293C281.389 11.0957 280.803 11.9746 279.631 13.166C278.479 14.3379 277.844 15.168 277.727 15.6562C277.609 16.125 277.551 18.3906 277.551 22.4531L277.17 36.0469L277.141 37.3359L277.082 38.625ZM292.17 4.875H292.932C294.26 4.875 295.275 5.30469 295.979 6.16406C296.701 7.00391 297.062 8.21484 297.062 9.79688V11.0273C297.062 13.2539 296.35 15.3926 294.924 17.4434C292.854 20.4316 291.057 21.9258 289.533 21.9258H289.328C288.332 21.9258 287.834 21.4082 287.834 20.373C287.834 20.1973 288.332 19.4648 289.328 18.1758C290.324 16.8672 290.822 15.6367 290.822 14.4844C290.822 14.0938 290.314 13.3906 289.299 12.375C288.283 11.3594 287.775 10.3535 287.775 9.35742V8.88867C287.775 7.7168 288.225 6.75977 289.123 6.01758C290.041 5.25586 291.057 4.875 292.17 4.875ZM317.307 6.7793C322.521 6.7793 326.027 7.23828 327.824 8.15625C329.172 8.83984 329.846 10.5977 329.846 13.4297C329.846 16.2617 329.367 17.6777 328.41 17.6777C327.629 17.6777 326.35 16.8574 324.572 15.2168C322.795 13.5566 321.447 12.4727 320.529 11.9648C319.611 11.457 318.41 11.2031 316.926 11.2031C315.461 11.2031 314.201 11.6816 313.146 12.6387C312.111 13.5957 311.594 14.7383 311.594 16.0664C311.594 17.8438 312.57 19.4355 314.523 20.8418C315.5 21.5449 317.756 22.6875 321.291 24.2695C324.826 25.8516 327.346 27.4043 328.85 28.9277C330.979 31.0957 332.043 33.5371 332.043 36.252C332.043 41.916 329.24 45.7344 323.635 47.707C321.975 48.293 320.275 48.5859 318.537 48.5859H317.482C315.334 48.5859 312.951 48.3418 310.334 47.8535C307.717 47.3652 306.066 46.8867 305.383 46.418C304.113 45.5391 303.479 43.498 303.479 40.2949V39.2988C303.479 37.2285 304.035 36.1934 305.148 36.1934C305.93 36.1934 307.17 37.1895 308.869 39.1816C310.568 41.1738 311.994 42.502 313.146 43.166C314.318 43.8301 315.803 44.1621 317.6 44.1621C319.416 44.1621 320.939 43.6445 322.17 42.6094C323.4 41.5742 324.016 40.4512 324.016 39.2402C324.016 37.4238 323.469 35.9297 322.375 34.7578C321.281 33.5859 319.104 32.248 315.842 30.7441C312.58 29.2402 310.324 28.0293 309.074 27.1113C305.637 24.5723 303.918 21.5254 303.918 17.9707C303.918 17.2285 303.996 16.457 304.152 15.6562C304.797 12.2969 306.955 9.75781 310.627 8.03906C312.424 7.19922 314.299 6.7793 316.252 6.7793H317.307ZM154.65 77.8652C154.65 79.8379 154.074 80.8242 152.922 80.8242C152.414 80.8242 151.203 80.0625 149.289 78.5391C147.375 77.0156 145.783 75.9609 144.514 75.375C143.244 74.7695 141.789 74.4668 140.148 74.4668C140.109 74.4668 140.08 74.4668 140.061 74.4668C138.479 74.4668 136.965 74.8867 135.52 75.7266C131.457 78.0898 129.426 83.168 129.426 90.9609C129.426 93.1875 129.777 95.3555 130.48 97.4648C132.531 103.695 136.457 106.811 142.258 106.811C142.277 106.811 142.297 106.811 142.316 106.811C144.973 106.811 147.727 105.814 150.578 103.822C152.414 102.553 153.469 101.918 153.742 101.918C154.699 101.918 155.178 102.367 155.178 103.266V103.998C155.178 104.447 154.719 105.355 153.801 106.723C152.902 108.09 151.691 109.125 150.168 109.828C147.512 111.059 144.387 111.674 140.793 111.674H139.797C136.926 111.674 134.289 111.146 131.887 110.092C127.102 107.982 123.781 104.496 121.926 99.6328C120.93 97.0352 120.432 94.5059 120.432 92.0449V89.9941C120.432 87.5527 120.91 85.0625 121.867 82.5234C123.84 77.2695 127.219 73.6074 132.004 71.5371C134.523 70.4434 137.014 69.8965 139.475 69.8965H140.441C146.613 69.8965 150.695 70.4824 152.688 71.6543C153.996 72.416 154.65 74.4863 154.65 77.8652ZM190.041 92.2793V90.3164C190.041 88.3242 189.777 86.2344 189.25 84.0469C188.195 79.6914 186.34 76.6738 183.684 74.9941C182.492 74.252 181.125 73.8809 179.582 73.8809H179.143C177.873 73.8809 176.574 74.2617 175.246 75.0234C172.668 76.5078 170.9 79.125 169.943 82.875C169.338 85.2188 169.035 87.5527 169.035 89.877V90.873C169.035 93.1582 169.328 95.4141 169.914 97.6406C171.086 102.035 173.098 105.082 175.949 106.781C177.121 107.484 178.332 107.836 179.582 107.836H180.461C181.789 107.836 183.068 107.455 184.299 106.693C185.529 105.912 186.535 104.867 187.316 103.559C189.133 100.531 190.041 96.7715 190.041 92.2793ZM160.598 91.0195C160.598 87.8945 161.076 85.0039 162.033 82.3477C163.889 77.1523 167.141 73.5488 171.789 71.5371C174.484 70.3652 177.238 69.7793 180.051 69.7793L180.754 69.8086H181.428C183.693 69.8086 186.047 70.3262 188.488 71.3613C190.93 72.3965 193.01 73.8711 194.729 75.7852C196.467 77.6797 197.785 79.8965 198.684 82.4355C199.582 84.9551 200.031 87.5137 200.031 90.1113V90.7852C200.031 93.7344 199.533 96.5566 198.537 99.252C197.561 101.928 196.145 104.223 194.289 106.137C190.539 110.023 185.568 111.977 179.377 111.996C176.838 111.996 174.387 111.518 172.023 110.561C169.68 109.584 167.717 108.227 166.135 106.488C162.443 102.387 160.598 97.2305 160.598 91.0195ZM235.979 75.5215V76.459C235.979 78.0801 235.422 78.8906 234.309 78.8906C234.211 78.8906 232.834 78.2266 230.178 76.8984C227.521 75.5703 225.188 74.9062 223.176 74.9062C222.512 74.9062 221.721 75.1406 220.803 75.6094C219.904 76.0781 219.23 76.7227 218.781 77.543C218.352 78.3438 218.137 79.7891 218.137 81.8789C218.137 86.0195 219.543 88.0898 222.355 88.0898C223.215 88.0898 224.289 87.7188 225.578 86.9766C226.887 86.2148 227.639 85.834 227.834 85.834C229.338 85.834 230.09 87.5234 230.09 90.9023C230.09 92.7578 229.738 94.0664 229.035 94.8281C228.723 95.1797 228.361 95.3555 227.951 95.3555C227.541 95.3555 226.76 95.1309 225.607 94.6816C224.475 94.2129 223.684 93.9785 223.234 93.9785C221.359 93.9785 219.963 94.4082 219.045 95.2676C218.42 95.8535 218.107 97.0742 218.107 98.9297C218.107 100.785 218.371 102.592 218.898 104.35C219.426 106.088 219.924 107.426 220.393 108.363C220.881 109.301 221.125 109.779 221.125 109.799C221.125 110.834 220.109 111.352 218.078 111.352L217.082 111.322H216.057C211.193 111.322 208.107 111.117 206.799 110.707C205.939 110.434 205.51 109.936 205.51 109.213C205.51 108.49 206.115 107.787 207.326 107.104C208.557 106.42 209.279 105.59 209.494 104.613C209.572 104.242 209.611 100.199 209.611 92.4844C209.611 84.75 209.465 80.1309 209.172 78.627C208.898 77.123 208.195 75.7949 207.062 74.6426C205.93 73.4707 205.363 72.5625 205.363 71.918C205.363 71.2734 205.861 70.873 206.857 70.7168C208.615 70.4238 213.029 70.2773 220.1 70.2773L223.264 70.1895H226.428L227.453 70.2188C231.301 70.2188 233.566 70.4434 234.25 70.8926C235.402 71.6543 235.979 73.1973 235.979 75.5215ZM270.959 75.5215V76.459C270.959 78.0801 270.402 78.8906 269.289 78.8906C269.191 78.8906 267.814 78.2266 265.158 76.8984C262.502 75.5703 260.168 74.9062 258.156 74.9062C257.492 74.9062 256.701 75.1406 255.783 75.6094C254.885 76.0781 254.211 76.7227 253.762 77.543C253.332 78.3438 253.117 79.7891 253.117 81.8789C253.117 86.0195 254.523 88.0898 257.336 88.0898C258.195 88.0898 259.27 87.7188 260.559 86.9766C261.867 86.2148 262.619 85.834 262.814 85.834C264.318 85.834 265.07 87.5234 265.07 90.9023C265.07 92.7578 264.719 94.0664 264.016 94.8281C263.703 95.1797 263.342 95.3555 262.932 95.3555C262.521 95.3555 261.74 95.1309 260.588 94.6816C259.455 94.2129 258.664 93.9785 258.215 93.9785C256.34 93.9785 254.943 94.4082 254.025 95.2676C253.4 95.8535 253.088 97.0742 253.088 98.9297C253.088 100.785 253.352 102.592 253.879 104.35C254.406 106.088 254.904 107.426 255.373 108.363C255.861 109.301 256.105 109.779 256.105 109.799C256.105 110.834 255.09 111.352 253.059 111.352L252.062 111.322H251.037C246.174 111.322 243.088 111.117 241.779 110.707C240.92 110.434 240.49 109.936 240.49 109.213C240.49 108.49 241.096 107.787 242.307 107.104C243.537 106.42 244.26 105.59 244.475 104.613C244.553 104.242 244.592 100.199 244.592 92.4844C244.592 84.75 244.445 80.1309 244.152 78.627C243.879 77.123 243.176 75.7949 242.043 74.6426C240.91 73.4707 240.344 72.5625 240.344 71.918C240.344 71.2734 240.842 70.873 241.838 70.7168C243.596 70.4238 248.01 70.2773 255.08 70.2773L258.244 70.1895H261.408L262.434 70.2188C266.281 70.2188 268.547 70.4434 269.23 70.8926C270.383 71.6543 270.959 73.1973 270.959 75.5215ZM306.291 75.4629C306.291 76.7715 306.105 77.6309 305.734 78.041C305.363 78.4316 304.797 78.627 304.035 78.627L303.508 78.3633L302.893 77.9531L302.189 77.543C301.506 77.1523 300.188 76.6152 298.234 75.9316C296.301 75.248 294.494 74.9062 292.814 74.9062C291.135 74.9062 289.904 75.5117 289.123 76.7227C288.361 77.9336 287.98 80.4238 287.98 84.1934C287.98 85.2676 288.312 86.127 288.977 86.7715C289.641 87.416 290.559 87.7383 291.73 87.7383C292.902 87.7383 294.191 87.3281 295.598 86.5078C297.023 85.6875 298.029 85.2773 298.615 85.2773C299.221 85.2773 299.748 85.6777 300.197 86.4785C300.646 87.2598 300.871 88.1973 300.871 89.291C300.871 92.2402 300.549 94.0566 299.904 94.7402L299.113 95.1797C297.961 95.1797 297.043 94.916 296.359 94.3887C294.855 93.2363 293.752 92.6602 293.049 92.6602C290.822 92.6602 289.328 93.1289 288.566 94.0664C288.195 94.5352 288.01 96.1465 288.01 98.9004C288.01 101.635 288.566 103.715 289.68 105.141C290.266 105.902 291.555 106.283 293.547 106.283C295.539 106.283 298.078 105.609 301.164 104.262C304.27 102.895 306.047 102.211 306.496 102.211C307.336 102.211 307.756 103.002 307.756 104.584V105.639C307.756 106.186 307.561 106.947 307.17 107.924C306.779 108.9 306.174 109.662 305.354 110.209C304.533 110.756 303.186 111.029 301.311 111.029H280.07C276.828 111.029 275.207 110.609 275.207 109.77V108.832C275.207 108.168 275.803 107.504 276.994 106.84C278.205 106.176 278.908 105.463 279.104 104.701C279.318 103.92 279.426 99.4277 279.426 91.2246C279.426 83.0215 279.289 78.373 279.016 77.2793C278.742 76.1855 278.059 75.1797 276.965 74.2617C275.871 73.3438 275.324 72.4355 275.324 71.5371C275.324 70.8926 276.027 70.5312 277.434 70.4531C278.84 70.3555 283.459 70.3066 291.291 70.3066L298.908 70.2773H300.139C302.111 70.2773 303.498 70.5605 304.299 71.127C305.627 72.0645 306.291 73.5098 306.291 75.4629ZM343.732 75.4629C343.732 76.7715 343.547 77.6309 343.176 78.041C342.805 78.4316 342.238 78.627 341.477 78.627L340.949 78.3633L340.334 77.9531L339.631 77.543C338.947 77.1523 337.629 76.6152 335.676 75.9316C333.742 75.248 331.936 74.9062 330.256 74.9062C328.576 74.9062 327.346 75.5117 326.564 76.7227C325.803 77.9336 325.422 80.4238 325.422 84.1934C325.422 85.2676 325.754 86.127 326.418 86.7715C327.082 87.416 328 87.7383 329.172 87.7383C330.344 87.7383 331.633 87.3281 333.039 86.5078C334.465 85.6875 335.471 85.2773 336.057 85.2773C336.662 85.2773 337.189 85.6777 337.639 86.4785C338.088 87.2598 338.312 88.1973 338.312 89.291C338.312 92.2402 337.99 94.0566 337.346 94.7402L336.555 95.1797C335.402 95.1797 334.484 94.916 333.801 94.3887C332.297 93.2363 331.193 92.6602 330.49 92.6602C328.264 92.6602 326.77 93.1289 326.008 94.0664C325.637 94.5352 325.451 96.1465 325.451 98.9004C325.451 101.635 326.008 103.715 327.121 105.141C327.707 105.902 328.996 106.283 330.988 106.283C332.98 106.283 335.52 105.609 338.605 104.262C341.711 102.895 343.488 102.211 343.938 102.211C344.777 102.211 345.197 103.002 345.197 104.584V105.639C345.197 106.186 345.002 106.947 344.611 107.924C344.221 108.9 343.615 109.662 342.795 110.209C341.975 110.756 340.627 111.029 338.752 111.029H317.512C314.27 111.029 312.648 110.609 312.648 109.77V108.832C312.648 108.168 313.244 107.504 314.436 106.84C315.646 106.176 316.35 105.463 316.545 104.701C316.76 103.92 316.867 99.4277 316.867 91.2246C316.867 83.0215 316.73 78.373 316.457 77.2793C316.184 76.1855 315.5 75.1797 314.406 74.2617C313.312 73.3438 312.766 72.4355 312.766 71.5371C312.766 70.8926 313.469 70.5312 314.875 70.4531C316.281 70.3555 320.9 70.3066 328.732 70.3066L336.35 70.2773H337.58C339.553 70.2773 340.939 70.5605 341.74 71.127C343.068 72.0645 343.732 73.5098 343.732 75.4629ZM379.416 69.7793C384.631 69.7793 388.137 70.2383 389.934 71.1562C391.281 71.8398 391.955 73.5977 391.955 76.4297C391.955 79.2617 391.477 80.6777 390.52 80.6777C389.738 80.6777 388.459 79.8574 386.682 78.2168C384.904 76.5566 383.557 75.4727 382.639 74.9648C381.721 74.457 380.52 74.2031 379.035 74.2031C377.57 74.2031 376.311 74.6816 375.256 75.6387C374.221 76.5957 373.703 77.7383 373.703 79.0664C373.703 80.8438 374.68 82.4355 376.633 83.8418C377.609 84.5449 379.865 85.6875 383.4 87.2695C386.936 88.8516 389.455 90.4043 390.959 91.9277C393.088 94.0957 394.152 96.5371 394.152 99.252C394.152 104.916 391.35 108.734 385.744 110.707C384.084 111.293 382.385 111.586 380.646 111.586H379.592C377.443 111.586 375.061 111.342 372.443 110.854C369.826 110.365 368.176 109.887 367.492 109.418C366.223 108.539 365.588 106.498 365.588 103.295V102.299C365.588 100.229 366.145 99.1934 367.258 99.1934C368.039 99.1934 369.279 100.189 370.979 102.182C372.678 104.174 374.104 105.502 375.256 106.166C376.428 106.83 377.912 107.162 379.709 107.162C381.525 107.162 383.049 106.645 384.279 105.609C385.51 104.574 386.125 103.451 386.125 102.24C386.125 100.424 385.578 98.9297 384.484 97.7578C383.391 96.5859 381.213 95.248 377.951 93.7441C374.689 92.2402 372.434 91.0293 371.184 90.1113C367.746 87.5723 366.027 84.5254 366.027 80.9707C366.027 80.2285 366.105 79.457 366.262 78.6562C366.906 75.2969 369.064 72.7578 372.736 71.0391C374.533 70.1992 376.408 69.7793 378.361 69.7793H379.416ZM416.389 92.1914C413.908 92.1914 412.424 92.582 411.936 93.3633C411.604 93.9102 411.438 95.4922 411.438 98.1094C411.438 100.727 411.594 102.582 411.906 103.676C412.238 104.75 412.814 105.805 413.635 106.84C414.475 107.875 414.895 108.695 414.895 109.301C414.895 109.887 414.133 110.316 412.609 110.59C411.105 110.844 407.609 110.971 402.121 110.971C400.988 110.971 400.236 110.824 399.865 110.531C399.514 110.219 399.338 109.584 399.338 108.627C399.338 108.275 399.826 107.699 400.803 106.898C401.799 106.078 402.414 105.248 402.648 104.408C402.883 103.568 403 98.9492 403 90.5508C403 82.1328 402.863 77.5039 402.59 76.6641C402.336 75.8047 401.535 74.9551 400.188 74.1152C399.27 73.5293 398.811 72.6602 398.811 71.5078L399.484 70.8926C400.285 70.4629 403.879 70.248 410.266 70.248C413.234 70.248 414.719 70.7461 414.719 71.7422C414.719 72.2109 414.367 73.1777 413.664 74.6426C412.961 76.0879 412.492 77.2598 412.258 78.1582C412.043 79.0371 411.936 80.9902 411.936 84.0176C411.936 85.541 412.297 86.5859 413.02 87.1523C413.449 87.4844 415.725 87.6504 419.846 87.6504C423.986 87.6504 426.369 87.4453 426.994 87.0352C427.619 86.625 427.932 85.2578 427.932 82.9336C427.932 80.5898 427.785 78.9004 427.492 77.8652C427.219 76.8105 426.691 75.707 425.91 74.5547C425.129 73.4023 424.738 72.6992 424.738 72.4453C424.738 71.7031 425.422 71.166 426.789 70.834C427.531 70.6582 429.533 70.5703 432.795 70.5703C436.057 70.5703 438.107 70.668 438.947 70.8633C440.041 71.1172 440.588 71.8496 440.588 73.0605C440.588 73.4707 440.07 74.1543 439.035 75.1113C438.02 76.0488 437.434 76.7129 437.277 77.1035C436.926 78.0215 436.75 81.7422 436.75 88.2656L436.662 95.3848L436.633 96.791V99.6328C436.633 103.207 436.857 105.404 437.307 106.225C437.482 106.557 438.078 107.016 439.094 107.602C440.129 108.168 440.646 108.959 440.646 109.975C440.646 110.834 439.25 111.264 436.457 111.264L435.109 111.234L432.326 111.205C428.439 111.205 426.164 110.883 425.5 110.238L425.148 109.594C425.148 108.891 425.559 107.846 426.379 106.459C427.199 105.072 427.736 103.832 427.99 102.738C428.264 101.625 428.4 99.877 428.4 97.4941C428.4 95.1113 428.039 93.6367 427.316 93.0703C426.613 92.4844 422.971 92.1914 416.389 92.1914ZM475.568 92.2793V90.3164C475.568 88.3242 475.305 86.2344 474.777 84.0469C473.723 79.6914 471.867 76.6738 469.211 74.9941C468.02 74.252 466.652 73.8809 465.109 73.8809H464.67C463.4 73.8809 462.102 74.2617 460.773 75.0234C458.195 76.5078 456.428 79.125 455.471 82.875C454.865 85.2188 454.562 87.5527 454.562 89.877V90.873C454.562 93.1582 454.855 95.4141 455.441 97.6406C456.613 102.035 458.625 105.082 461.477 106.781C462.648 107.484 463.859 107.836 465.109 107.836H465.988C467.316 107.836 468.596 107.455 469.826 106.693C471.057 105.912 472.062 104.867 472.844 103.559C474.66 100.531 475.568 96.7715 475.568 92.2793ZM446.125 91.0195C446.125 87.8945 446.604 85.0039 447.561 82.3477C449.416 77.1523 452.668 73.5488 457.316 71.5371C460.012 70.3652 462.766 69.7793 465.578 69.7793L466.281 69.8086H466.955C469.221 69.8086 471.574 70.3262 474.016 71.3613C476.457 72.3965 478.537 73.8711 480.256 75.7852C481.994 77.6797 483.312 79.8965 484.211 82.4355C485.109 84.9551 485.559 87.5137 485.559 90.1113V90.7852C485.559 93.7344 485.061 96.5566 484.064 99.252C483.088 101.928 481.672 104.223 479.816 106.137C476.066 110.023 471.096 111.977 464.904 111.996C462.365 111.996 459.914 111.518 457.551 110.561C455.207 109.584 453.244 108.227 451.662 106.488C447.971 102.387 446.125 97.2305 446.125 91.0195ZM503.371 88.998C503.371 90.1113 503.566 90.873 503.957 91.2832C504.367 91.6738 505.266 91.8691 506.652 91.8691H508.059C510.07 91.8691 511.711 91.1172 512.98 89.6133C514.25 88.1094 514.885 85.9805 514.885 83.2266L514.855 82.9336C514.855 80.1602 514.133 77.9824 512.688 76.4004C511.242 74.8184 509.406 74.0273 507.18 74.0273H506.447C504.807 74.0273 503.84 74.4277 503.547 75.2285C503.449 75.4824 503.4 76.957 503.4 79.6523V84.1055L503.371 85.2188V88.998ZM491.389 109.535C491.389 108.188 491.965 107.123 493.117 106.342C494.27 105.541 494.934 104.652 495.109 103.676C495.383 102.133 495.52 97.7285 495.52 90.4629C495.52 83.1973 495.344 78.8418 494.992 77.3965C494.641 75.9316 494.143 74.9258 493.498 74.3789C492.092 73.207 491.389 72.4453 491.389 72.0938V71.625C491.389 70.8242 492.121 70.3164 493.586 70.1016C493.996 70.043 496.076 70.0137 499.826 70.0137L503.693 69.9551H504.455L506.77 70.043H509.113C516.027 70.043 520.637 72.1816 522.941 76.459C523.82 78.0996 524.26 79.8379 524.26 81.6738V82.4941C524.26 85.7754 523.059 88.5488 520.656 90.8145C518.254 93.0605 514.865 94.3789 510.49 94.7695C507.912 95.0039 506.457 95.1992 506.125 95.3555C504.816 95.9414 504.162 98.1191 504.162 101.889C504.162 103.627 504.768 104.984 505.979 105.961C507.6 107.27 508.41 108.373 508.41 109.271C508.41 109.975 507.658 110.463 506.154 110.736C504.67 111.01 502.512 111.146 499.68 111.146C494.152 111.146 491.389 110.609 491.389 109.535Z" fill="#EBE7D1"/>
<path d="M91.9994 27.75H3.99939V23.125C3.99939 19.4451 5.26367 15.916 7.51411 13.3139C9.76454 10.7118 12.8168 9.25 15.9994 9.25H16.6834C17.5137 6.54665 19.047 4.20649 21.0729 2.55043C23.0989 0.894364 25.5183 0.00349996 27.9994 0L67.9994 0C70.4805 0.00349996 72.8999 0.894364 74.9258 2.55043C76.9518 4.20649 78.4851 6.54665 79.3154 9.25H79.9994C83.182 9.25 86.2342 10.7118 88.4847 13.3139C90.7351 15.916 91.9994 19.4451 91.9994 23.125V27.75ZM39.9994 74C40.4194 92.2872 55.5794 92.2826 55.9994 74C55.5994 55.7128 40.4194 55.7174 39.9994 74ZM32.3234 69.375C35.8914 44.9226 60.1154 44.9365 63.6754 69.375H84.0314L87.5314 37H8.46739L11.9674 69.375H32.3234ZM63.6754 78.625C60.1074 103.077 35.8874 103.063 32.3234 78.625H12.9674L16.4674 111H79.5314L83.0314 78.625H63.6754Z" fill="#EBE7D1"/>
</svg>
