<svg width="348" height="348" viewBox="0 0 348 348" fill="none" xmlns="http://www.w3.org/2000/svg">
<rect width="348" height="348" rx="174" fill="#5B3E26"/>
<g clip-path="url(#clip0_52_277)">
<path d="M256.499 121.25H91.4988V112.542C91.4988 105.613 93.8693 98.9678 98.0889 94.0684C102.308 89.169 108.031 86.4165 113.999 86.4165H115.281C116.838 81.3265 119.713 76.9202 123.512 73.802C127.31 70.6839 131.847 69.0065 136.499 68.9999H211.499C216.151 69.0065 220.687 70.6839 224.486 73.802C228.285 76.9202 231.159 81.3265 232.716 86.4165H233.999C239.966 86.4165 245.689 89.169 249.909 94.0684C254.128 98.9678 256.499 105.613 256.499 112.542V121.25ZM158.999 208.333C159.786 242.766 188.211 242.757 188.999 208.333C188.249 173.9 159.786 173.909 158.999 208.333ZM144.606 199.625C151.296 153.584 196.716 153.61 203.391 199.625H241.559L248.121 138.667H99.8763L106.439 199.625H144.606ZM203.391 217.042C196.701 263.082 151.289 263.056 144.606 217.042H108.314L114.876 278H233.121L239.684 217.042H203.391Z" fill="#EBE7D1"/>
</g>
<defs>
<clipPath id="clip0_52_277">
<rect width="180" height="209" fill="white" transform="translate(84 69)"/>
</clipPath>
</defs>
</svg>
